<svg xmlns="http://www.w3.org/2000/svg" viewBox="0 0 120 120" role="img" aria-label="Azure Palms STP logo">
  <defs>
    <linearGradient id="sunGrad" x1="0" y1="0" x2="0" y2="1">
      <stop offset="0%" stop-color="#fbbf24"/>
      <stop offset="100%" stop-color="#fb923c"/>
    </linearGradient>
  </defs>
  <rect width="120" height="120" rx="16" fill="#e0f7ff"/>
  <circle cx="60" cy="38" r="20" fill="url(#sunGrad)"/>
  <path d="M12 86 C32 72, 88 72, 108 86 L108 94 L12 94 Z" fill="#0ea5e9"/>
  <path d="M12 94 C32 86, 88 86, 108 94 L108 102 L12 102 Z" fill="#1ea7db" opacity="0.85"/>
  <g fill="#10b981" transform="translate(26,36) scale(0.9)">
    <path d="M40 20c-5-14-16-19-26-16 7 4 12 8 15 12-10-5-19-4-24 1 9 1 15 2 20 7-10 0-16 4-19 9 9-3 15-3 21 1v48h6V42c3-3 7-4 11-4-3-5-5-9-5-12z"/>
  </g>
</svg>
